<svg data-logo="logo" xmlns="http://www.w3.org/2000/svg" viewBox="0 0 267 42">
            <g style="opacity: 1;" id="logogram" transform="translate(0, 1) rotate(0)"><path d="M40 13.4683C40.0001 10.7823 39.1891 8.1589 37.673 5.9417C36.1569 3.72451 34.0065 2.01688 31.5035 1.04252C29.0005 0.0681476 26.2615 -0.127534 23.6455 0.48109C21.0293 1.08971 18.658 2.47428 16.8421 4.45341H0V40H35.5601V23.3873C36.9557 22.139 38.0726 20.6104 38.8377 18.9012C39.6027 17.192 39.9988 15.3409 40 13.4683ZM33.1579 13.4683C33.1606 14.7553 32.7814 16.0143 32.0683 17.0858C31.3551 18.1572 30.3402 18.9931 29.1518 19.4874C27.9634 19.9819 26.6552 20.1127 25.3924 19.8631C24.1298 19.6137 22.9695 18.9953 22.0584 18.0861C21.1474 17.1769 20.5266 16.0179 20.2745 14.7557C20.0224 13.4936 20.1505 12.185 20.6424 10.9957C21.1343 9.80626 21.968 8.78957 23.0379 8.07423C24.108 7.35888 25.3661 6.97705 26.6532 6.97703C28.376 6.97703 30.0285 7.6605 31.2479 8.87745C32.4675 10.0944 33.1544 11.7455 33.1579 13.4683ZM28.7179 33.1579H6.84211V11.2955H13.5088C13.38 12.0128 13.3123 12.7397 13.3063 13.4683C13.31 17.007 14.7173 20.3997 17.2196 22.902C19.7217 25.4042 23.1144 26.8116 26.6532 26.8151C27.3451 26.8115 28.0355 26.7528 28.7179 26.6397V33.1579Z" fill="#E5471F"></path></g>
            <g style="opacity: 1;" id="logotype" transform="translate(46, 1)"><path fill="#eb0a0a" d="M27.33 33L7.97 33L7.97 29.87L18.29 15.29Q19.24 13.96 20.39 12.62Q21.53 11.28 22.70 9.96L22.70 9.96L23.09 11.65Q21.38 11.81 19.66 11.83Q17.95 11.86 16.24 11.86L16.24 11.86L7.91 11.86L7.91 7.54L27.28 7.54L27.28 10.68L17.14 25.00Q16.13 26.40 14.95 27.80Q13.76 29.19 12.55 30.57L12.55 30.57L12.15 28.88Q13.95 28.73 15.73 28.70Q17.52 28.68 19.30 28.68L19.30 28.68L27.33 28.68L27.33 33ZM37.79 33.38L37.79 33.38Q34.86 33.38 32.74 32.18Q30.62 30.98 29.49 28.78Q28.35 26.57 28.35 23.55L28.35 23.55Q28.35 20.59 29.48 18.37Q30.61 16.15 32.68 14.90Q34.74 13.65 37.53 13.65L37.53 13.65Q39.41 13.65 41.03 14.25Q42.66 14.85 43.89 16.06Q45.12 17.26 45.81 19.07Q46.50 20.88 46.50 23.34L46.50 23.34L46.50 24.78L30.45 24.78L30.45 21.57L43.99 21.57L41.60 22.42Q41.60 20.93 41.14 19.83Q40.69 18.73 39.79 18.12Q38.90 17.52 37.56 17.52L37.56 17.52Q36.25 17.52 35.32 18.13Q34.38 18.75 33.91 19.80Q33.43 20.85 33.43 22.20L33.43 22.20L33.43 24.47Q33.43 26.13 33.98 27.26Q34.54 28.39 35.54 28.95Q36.54 29.51 37.87 29.51L37.87 29.51Q38.78 29.51 39.51 29.26Q40.25 29.00 40.77 28.50Q41.29 27.99 41.56 27.26L41.56 27.26L46.21 28.13Q45.75 29.70 44.60 30.89Q43.46 32.08 41.74 32.73Q40.02 33.38 37.79 33.38ZM52.86 21.94L52.86 21.94L52.86 33L47.73 33L47.73 13.89L52.57 13.89L52.65 18.66L52.34 18.66Q53.10 16.27 54.63 14.96Q56.15 13.65 58.58 13.65L58.58 13.65Q60.56 13.65 62.03 14.52Q63.50 15.38 64.32 17.00Q65.14 18.61 65.14 20.85L65.14 20.85L65.14 33L60.02 33L60.02 21.74Q60.02 19.96 59.10 18.95Q58.19 17.94 56.56 17.94L56.56 17.94Q55.49 17.94 54.64 18.41Q53.80 18.88 53.33 19.77Q52.86 20.66 52.86 21.94ZM90.45 33L73.38 33L73.38 7.54L90.42 7.54L90.42 11.86L78.59 11.86L78.59 18.01L89.51 18.01L89.51 22.27L78.59 22.27L78.59 28.68L90.45 28.68L90.45 33ZM96.21 33L90.77 33L98.17 21.19L98.16 25.19L91.15 13.89L96.69 13.89L98.41 16.92Q99.23 18.39 99.89 19.83Q100.55 21.28 101.23 22.64L101.23 22.64L99.28 22.64Q99.98 21.29 100.63 19.84Q101.28 18.39 102.14 16.92L102.14 16.92L103.93 13.89L109.37 13.89L102.22 25.24L102.22 21.29L109.64 33L104.14 33L102.02 29.39Q101.18 27.94 100.51 26.49Q99.83 25.04 99.13 23.70L99.13 23.70L101.09 23.70Q100.43 25.04 99.79 26.49Q99.15 27.94 98.33 29.39L98.33 29.39L96.21 33ZM115.40 40.14L110.27 40.14L110.27 13.89L115.31 13.89L115.31 17.11L115.55 17.11Q115.91 16.35 116.57 15.55Q117.23 14.75 118.30 14.20Q119.38 13.65 121.00 13.65L121.00 13.65Q123.12 13.65 124.88 14.75Q126.64 15.84 127.69 18.03Q128.74 20.22 128.74 23.48L128.74 23.48Q128.74 26.66 127.72 28.86Q126.69 31.05 124.93 32.19Q123.17 33.32 120.97 33.32L120.97 33.32Q119.41 33.32 118.34 32.79Q117.26 32.27 116.58 31.49Q115.91 30.71 115.55 29.94L115.55 29.94L115.40 29.94L115.40 40.14ZM119.40 29.21L119.40 29.21Q120.73 29.21 121.64 28.47Q122.56 27.74 123.03 26.44Q123.50 25.14 123.50 23.46L123.50 23.46Q123.50 21.79 123.03 20.51Q122.56 19.23 121.65 18.49Q120.75 17.76 119.40 17.76L119.40 17.76Q118.08 17.76 117.16 18.47Q116.23 19.17 115.76 20.45Q115.28 21.72 115.28 23.46L115.28 23.46Q115.28 25.19 115.76 26.48Q116.25 27.77 117.17 28.49Q118.10 29.21 119.40 29.21ZM138.69 33.38L138.69 33.38Q135.77 33.38 133.65 32.18Q131.53 30.98 130.39 28.78Q129.25 26.57 129.25 23.55L129.25 23.55Q129.25 20.59 130.38 18.37Q131.51 16.15 133.58 14.90Q135.65 13.65 138.43 13.65L138.43 13.65Q140.31 13.65 141.94 14.25Q143.56 14.85 144.79 16.06Q146.02 17.26 146.71 19.07Q147.40 20.88 147.40 23.34L147.40 23.34L147.40 24.78L131.36 24.78L131.36 21.57L144.89 21.57L142.50 22.42Q142.50 20.93 142.05 19.83Q141.59 18.73 140.70 18.12Q139.80 17.52 138.47 17.52L138.47 17.52Q137.15 17.52 136.22 18.13Q135.29 18.75 134.81 19.80Q134.33 20.85 134.33 22.20L134.33 22.20L134.33 24.47Q134.33 26.13 134.89 27.26Q135.44 28.39 136.44 28.95Q137.44 29.51 138.77 29.51L138.77 29.51Q139.68 29.51 140.41 29.26Q141.15 29.00 141.67 28.50Q142.19 27.99 142.47 27.26L142.47 27.26L147.11 28.13Q146.65 29.70 145.51 30.89Q144.36 32.08 142.64 32.73Q140.93 33.38 138.69 33.38ZM153.76 21.94L153.76 21.94L153.76 33L148.63 33L148.63 13.89L153.47 13.89L153.55 18.66L153.25 18.66Q154.00 16.27 155.53 14.96Q157.06 13.65 159.48 13.65L159.48 13.65Q161.47 13.65 162.94 14.52Q164.41 15.38 165.23 17.00Q166.05 18.61 166.05 20.85L166.05 20.85L166.05 33L160.92 33L160.92 21.74Q160.92 19.96 160.01 18.95Q159.09 17.94 157.47 17.94L157.47 17.94Q156.39 17.94 155.55 18.41Q154.70 18.88 154.23 19.77Q153.76 20.66 153.76 21.94ZM175.73 33.38L175.73 33.38Q173.43 33.38 171.65 32.72Q169.87 32.06 168.75 30.80Q167.62 29.55 167.29 27.77L167.29 27.77L172.06 26.95Q172.44 28.28 173.38 28.95Q174.32 29.62 175.89 29.62L175.89 29.62Q177.34 29.62 178.20 29.06Q179.05 28.51 179.05 27.65L179.05 27.65Q179.05 26.90 178.44 26.42Q177.84 25.94 176.59 25.69L176.59 25.69L173.29 25.00Q170.52 24.44 169.16 23.08Q167.79 21.72 167.79 19.58L167.79 19.58Q167.79 17.74 168.80 16.41Q169.80 15.09 171.60 14.37Q173.39 13.65 175.82 13.65L175.82 13.65Q178.08 13.65 179.73 14.28Q181.39 14.90 182.42 16.05Q183.44 17.19 183.78 18.75L183.78 18.75L179.24 19.55Q178.95 18.58 178.12 17.95Q177.29 17.33 175.89 17.33L175.89 17.33Q174.62 17.33 173.77 17.86Q172.92 18.39 172.92 19.26L172.92 19.26Q172.92 19.99 173.47 20.49Q174.03 20.99 175.38 21.26L175.38 21.26L178.81 21.94Q181.58 22.51 182.93 23.78Q184.28 25.05 184.28 27.10L184.28 27.10Q184.28 28.98 183.19 30.39Q182.09 31.80 180.17 32.59Q178.25 33.38 175.73 33.38ZM194.10 33.38L194.10 33.38Q191.18 33.38 189.06 32.18Q186.94 30.98 185.81 28.78Q184.67 26.57 184.67 23.55L184.67 23.55Q184.67 20.59 185.80 18.37Q186.93 16.15 188.99 14.90Q191.06 13.65 193.85 13.65L193.85 13.65Q195.73 13.65 197.35 14.25Q198.98 14.85 200.21 16.06Q201.44 17.26 202.13 19.07Q202.82 20.88 202.82 23.34L202.82 23.34L202.82 24.78L186.77 24.78L186.77 21.57L200.31 21.57L197.92 22.42Q197.92 20.93 197.46 19.83Q197.01 18.73 196.11 18.12Q195.22 17.52 193.88 17.52L193.88 17.52Q192.57 17.52 191.64 18.13Q190.70 18.75 190.23 19.80Q189.75 20.85 189.75 22.20L189.75 22.20L189.75 24.47Q189.75 26.13 190.30 27.26Q190.86 28.39 191.86 28.95Q192.86 29.51 194.19 29.51L194.19 29.51Q195.10 29.51 195.83 29.26Q196.57 29.00 197.09 28.50Q197.61 27.99 197.88 27.26L197.88 27.26L202.53 28.13Q202.07 29.70 200.92 30.89Q199.78 32.08 198.06 32.73Q196.34 33.38 194.10 33.38ZM211.64 33.38L211.64 33.38Q209.33 33.38 207.55 32.72Q205.77 32.06 204.65 30.80Q203.52 29.55 203.19 27.77L203.19 27.77L207.96 26.95Q208.34 28.28 209.28 28.95Q210.22 29.62 211.79 29.62L211.79 29.62Q213.24 29.62 214.10 29.06Q214.95 28.51 214.95 27.65L214.95 27.65Q214.95 26.90 214.35 26.42Q213.74 25.94 212.49 25.69L212.49 25.69L209.19 25.00Q206.42 24.44 205.06 23.08Q203.69 21.72 203.69 19.58L203.69 19.58Q203.69 17.74 204.70 16.41Q205.71 15.09 207.50 14.37Q209.30 13.65 211.72 13.65L211.72 13.65Q213.98 13.65 215.64 14.28Q217.29 14.90 218.32 16.05Q219.34 17.19 219.69 18.75L219.69 18.75L215.14 19.55Q214.85 18.58 214.02 17.95Q213.19 17.33 211.79 17.33L211.79 17.33Q210.53 17.33 209.67 17.86Q208.82 18.39 208.82 19.26L208.82 19.26Q208.82 19.99 209.37 20.49Q209.93 20.99 211.28 21.26L211.28 21.26L214.71 21.94Q217.48 22.51 218.83 23.78Q220.18 25.05 220.18 27.10L220.18 27.10Q220.18 28.98 219.09 30.39Q217.99 31.80 216.07 32.59Q214.15 33.38 211.64 33.38Z"></path></g>
            
          </svg>